<svg xmlns="http://www.w3.org/2000/svg" viewBox="0 0 156.35 156.35"><defs><style>.cls-1{fill:#fff;}</style></defs><title>App</title><g id="Vrstva_2" data-name="Vrstva 2"><g id="App"><path class="cls-1" d="M156.35,156.35H0V0H156.35Zm-7.5-78.08h0c0-2.63,0-5.26,0-7.89,0-9.55,0-19.09-.08-28.64a50.45,50.45,0,0,0-.84-8.92A29.9,29.9,0,0,0,142.36,20a29.42,29.42,0,0,0-11.61-9.23A36.1,36.1,0,0,0,118.87,8c-3.77-.31-7.55-.31-11.32-.31-6.29,0-12.58-.06-18.87,0q-20.24,0-40.48,0c-3.71,0-7.42,0-11.12.37a41.19,41.19,0,0,0-7.39,1.32A29.63,29.63,0,0,0,9.9,27.92,39.14,39.14,0,0,0,7.84,39.51q-.24,5.34-.25,10.7,0,19,0,38.05c0,9.52.12,19,.24,28.55a39.73,39.73,0,0,0,1,8.12A29.63,29.63,0,0,0,29.2,147.07a41.82,41.82,0,0,0,11.22,1.69c3.88.12,7.76.15,11.64.16q26.55,0,53.09,0c4.08,0,8.15-.1,12.23-.22a40.17,40.17,0,0,0,7.15-.89,29.57,29.57,0,0,0,21.21-17,33.79,33.79,0,0,0,2.77-11.61q.31-4.29.33-8.59C148.87,99.86,148.85,89.06,148.85,78.27Z"/><path d="M148.85,78.27c0,10.79,0,21.59,0,32.38q0,4.3-.33,8.59a33.79,33.79,0,0,1-2.77,11.61,29.57,29.57,0,0,1-21.21,17,40.17,40.17,0,0,1-7.15.89c-4.08.12-8.15.22-12.23.22q-26.54,0-53.09,0c-3.88,0-7.76,0-11.64-.16a41.82,41.82,0,0,1-11.22-1.69A29.63,29.63,0,0,1,8.83,124.93a39.73,39.73,0,0,1-1-8.12c-.12-9.52-.22-19-.24-28.55q-.06-19,0-38.05,0-5.35.25-10.7A39.14,39.14,0,0,1,9.9,27.92,29.63,29.63,0,0,1,29.69,9.36,41.19,41.19,0,0,1,37.08,8c3.7-.35,7.41-.36,11.12-.37q20.24,0,40.48,0c6.29,0,12.58,0,18.87,0,3.77,0,7.55,0,11.32.31a36.1,36.1,0,0,1,11.88,2.79A29.42,29.42,0,0,1,142.36,20a29.9,29.9,0,0,1,5.56,12.82,50.45,50.45,0,0,1,.84,8.92c.06,9.55.06,19.09.08,28.64,0,2.63,0,5.26,0,7.89Zm-39,19.91a29,29,0,0,0,3.24-.45c2.76-.69,4.66-2.28,5-5.27a5.94,5.94,0,0,0-1.74-5.06,11.32,11.32,0,0,0-5.08-2.77,26.31,26.31,0,0,0-6.11-1,54,54,0,0,0-8.34.22c-1.72.17-3.43.45-5.14.66a.62.62,0,0,1-.47-.16c-.72-.71-1.43-1.44-2.12-2.19-3.09-3.41-4.78-24.1-4.63-29.41a15.47,15.47,0,0,0-1.33-7,7.45,7.45,0,0,0-5.22-4.47,6.3,6.3,0,0,0-6.67,2.4,9.87,9.87,0,0,0-1.62,4.94,25.4,25.4,0,0,0,.24,6.69c.64,4.07,2.18,16.35,1.46,18.27A128.23,128.23,0,0,1,63,92.1a1.19,1.19,0,0,1-.55.49,81.81,81.81,0,0,0-11,5.38,30.86,30.86,0,0,0-7.11,5.49,9.12,9.12,0,0,0-2.49,4.47,5.48,5.48,0,0,0,1.66,5.27,7.88,7.88,0,0,0,7,2,13.38,13.38,0,0,0,5.44-2.32,33.49,33.49,0,0,0,7-6.73A81.88,81.88,0,0,0,70.46,94.9a1,1,0,0,1,.61-.49,137.69,137.69,0,0,1,18.52-4.82.65.65,0,0,1,.48.14,38.58,38.58,0,0,0,8,5.39A27.85,27.85,0,0,0,109.8,98.18Z"/><rect x="34.32" y="33.26" width="88.95" height="89.2"/><path class="cls-1" d="M42.06,39.5c14.07,0,28.15-.51,42.19.12,19.65.89,32.45,14.62,33.22,34.27.4,10.35-.81,20.29-6.7,29.09-7.74,11.56-19.5,15.44-32.59,15.87-12.1.39-24.21.08-36.51.08.09-.54,0-1.19.24-1.34,7.06-4.46,7.65-11.17,7.43-18.75-.43-14.56-.36-29.14,0-43.69.13-5.57-1-9.95-5.8-13a22.4,22.4,0,0,0-2.66-1.27ZM69.51,78.68c0,11,.15,21.92-.08,32.87-.09,4.34,1.29,5.84,5.69,5.35,8-.88,14-4.66,15.72-12.48,2-8.85,3.48-18,3.5-27a94.76,94.76,0,0,0-3.67-24.52c-2.14-8-8.13-11.26-16.25-11.66-4.06-.2-5,1.35-5,5.07C69.62,57.09,69.51,67.89,69.51,78.68Z"/></g></g></svg>