<svg xmlns="http://www.w3.org/2000/svg" viewBox="0 0 72.27 75.19"><defs><style>.cls-1{fill:#010101;}</style></defs><title>Bell</title><g id="Vrstva_2" data-name="Vrstva 2"><g id="NewIcons_2.0" data-name="NewIcons 2.0"><g id="Bell"><path class="cls-1" d="M36,75.19a13.51,13.51,0,0,1-13.5-13.5,2.7,2.7,0,0,1,5.4,0,8.1,8.1,0,0,0,16.2,0,2.7,2.7,0,0,1,5.4,0A13.51,13.51,0,0,1,36,75.19Z"/><path class="cls-1" d="M66,64.39H6.32A6.33,6.33,0,0,1,2.21,53.26,3.15,3.15,0,0,1,2.5,53a24.27,24.27,0,0,0,8.34-18.32V24.64A25.14,25.14,0,0,1,30.23.07a2.71,2.71,0,1,1,1.25,5.28A19.72,19.72,0,0,0,16.26,24.64V34.72A29.72,29.72,0,0,1,5.77,57.38l-.16.13a.87.87,0,0,0-.19.56.91.91,0,0,0,.9.9H66a.91.91,0,0,0,.9-.9.8.8,0,0,0-.2-.56l-.15-.13a29.45,29.45,0,0,1-7.59-9.9,2.71,2.71,0,1,1,4.89-2.32,24.18,24.18,0,0,0,6,7.9,2.69,2.69,0,0,1,.27.2A6.32,6.32,0,0,1,66,64.39Z"/></g></g></g></svg>