<svg xmlns="http://www.w3.org/2000/svg" viewBox="0 0 75.45 75.47"><title>Board</title><g id="Vrstva_2" data-name="Vrstva 2"><g id="Board"><path d="M37.72,75.46H4.09C1.33,75.46,0,74.14,0,71.38Q0,53.13,0,34.85A5.81,5.81,0,0,1,.5,32.53c4.39-10,8.85-19.9,13.24-29.87A4,4,0,0,1,17.85,0Q37.76,0,57.67,0a3.92,3.92,0,0,1,4,2.58c4.39,9.94,8.83,19.86,13.21,29.8A7,7,0,0,1,75.42,35q0,18.21,0,36.44c0,2.63-1.38,4-4,4H37.72ZM68.5,68.55V37.74c-4.52,0-9,0-13.45,0-.54,0-.57.28-.67.68a17.15,17.15,0,0,1-33.3,0c-.14-.57-.34-.71-.89-.7-3.19,0-6.37,0-9.56,0H6.93V68.55ZM8.76,30.86H23.84a3.46,3.46,0,0,1,3.61,3.57,12.27,12.27,0,0,0,.21,1.91A10.27,10.27,0,0,0,48,34.46a3.44,3.44,0,0,1,3.65-3.6h15c-.08-.23-.12-.38-.19-.53Q61.36,18.88,56.28,7.43c-.21-.48-.5-.53-.93-.53q-17.58,0-35.16,0a1,1,0,0,0-1.12.73Q15.4,16,11.67,24.31C10.72,26.45,9.77,28.6,8.76,30.86Z"/></g></g></svg>