<svg width="22" height="21" viewBox="0 0 22 21" fill="none" xmlns="http://www.w3.org/2000/svg">
<path d="M8 20H7.25C7.25 20.291 7.41834 20.5558 7.68188 20.6792C7.94542 20.8026 8.25658 20.7625 8.48014 20.5762L8 20ZM14.1551 15.0216L14.3103 15.7554L14.1551 15.0216ZM13.555 15.3708L14.0351 15.947H14.0351L13.555 15.3708ZM13.8947 15.1159L14.2452 15.779L13.8947 15.1159ZM7.45399 15.109L7.1135 15.7772L7.45399 15.109ZM7.89101 15.546L7.22275 15.8865L7.89101 15.546ZM1.32698 13.362L0.658726 13.7025L1.32698 13.362ZM2.63803 14.673L2.29754 15.3413L2.63803 14.673ZM20.673 13.362L21.3413 13.7025L20.673 13.362ZM19.362 14.673L19.7025 15.3413L19.362 14.673ZM19.362 1.32698L19.7025 0.658726L19.362 1.32698ZM20.673 2.63803L21.3413 2.29754L20.673 2.63803ZM2.63803 1.32698L2.29754 0.658726L2.63803 1.32698ZM1.32698 2.63803L0.658726 2.29754L1.32698 2.63803ZM5 4.25C4.58579 4.25 4.25 4.58579 4.25 5C4.25 5.41421 4.58579 5.75 5 5.75V4.25ZM13 5.75C13.4142 5.75 13.75 5.41421 13.75 5C13.75 4.58579 13.4142 4.25 13 4.25V5.75ZM5 7.25C4.58579 7.25 4.25 7.58579 4.25 8C4.25 8.41421 4.58579 8.75 5 8.75V7.25ZM11 8.75C11.4142 8.75 11.75 8.41421 11.75 8C11.75 7.58579 11.4142 7.25 11 7.25V8.75ZM5.8 1.75H16.2V0.25H5.8V1.75ZM20.25 5.8V10.2H21.75V5.8H20.25ZM1.75 10.2V5.8H0.25V10.2H1.75ZM6.4 14.25H5.8V15.75H6.4V14.25ZM8.75 20V16.6H7.25V20H8.75ZM16.2 14.25H14.5793V15.75H16.2V14.25ZM13.0748 14.7947L7.51986 19.4238L8.48014 20.5762L14.0351 15.947L13.0748 14.7947ZM14.5793 14.25C14.3958 14.25 14.1968 14.2462 13.9999 14.2879L14.3103 15.7554C14.3066 15.7562 14.3141 15.7538 14.3556 15.7521C14.4033 15.7501 14.4662 15.75 14.5793 15.75V14.25ZM14.0351 15.947C14.122 15.8746 14.1704 15.8345 14.2083 15.8054C14.2412 15.7802 14.2486 15.7772 14.2452 15.779L13.5441 14.4529C13.3663 14.5469 13.2158 14.6772 13.0748 14.7947L14.0351 15.947ZM13.9999 14.2879C13.8411 14.3215 13.6877 14.377 13.5441 14.4529L14.2452 15.779C14.2657 15.7681 14.2876 15.7602 14.3103 15.7554L13.9999 14.2879ZM6.4 15.75C6.6924 15.75 6.8666 15.7506 6.99572 15.7611C7.1161 15.771 7.12989 15.7856 7.1135 15.7772L7.79448 14.4407C7.56418 14.3234 7.33101 14.2835 7.11787 14.2661C6.91349 14.2494 6.66765 14.25 6.4 14.25V15.75ZM8.75 16.6C8.75 16.3323 8.75058 16.0865 8.73388 15.8821C8.71647 15.669 8.67661 15.4358 8.55926 15.2055L7.22275 15.8865C7.2144 15.8701 7.22903 15.8839 7.23887 16.0043C7.24942 16.1334 7.25 16.3076 7.25 16.6H8.75ZM7.1135 15.7772C7.16054 15.8012 7.19878 15.8395 7.22275 15.8865L8.55926 15.2055C8.39148 14.8762 8.12377 14.6085 7.79448 14.4407L7.1135 15.7772ZM0.25 10.2C0.25 11.0277 0.249417 11.6936 0.293363 12.2315C0.338025 12.7781 0.432385 13.2582 0.658726 13.7025L1.99524 13.0215C1.8946 12.824 1.82546 12.5632 1.78838 12.1093C1.75058 11.6467 1.75 11.0525 1.75 10.2H0.25ZM5.8 14.25C4.94755 14.25 4.35331 14.2494 3.89068 14.2116C3.4368 14.1745 3.17604 14.1054 2.97852 14.0048L2.29754 15.3413C2.74175 15.5676 3.22189 15.662 3.76853 15.7066C4.30641 15.7506 4.9723 15.75 5.8 15.75V14.25ZM0.658726 13.7025C1.01825 14.4081 1.59193 14.9817 2.29754 15.3413L2.97852 14.0048C2.55516 13.789 2.21095 13.4448 1.99524 13.0215L0.658726 13.7025ZM20.25 10.2C20.25 11.0525 20.2494 11.6467 20.2116 12.1093C20.1745 12.5632 20.1054 12.824 20.0048 13.0215L21.3413 13.7025C21.5676 13.2582 21.662 12.7781 21.7066 12.2315C21.7506 11.6936 21.75 11.0277 21.75 10.2H20.25ZM16.2 15.75C17.0277 15.75 17.6936 15.7506 18.2315 15.7066C18.7781 15.662 19.2582 15.5676 19.7025 15.3413L19.0215 14.0048C18.824 14.1054 18.5632 14.1745 18.1093 14.2116C17.6467 14.2494 17.0525 14.25 16.2 14.25V15.75ZM20.0048 13.0215C19.789 13.4448 19.4448 13.789 19.0215 14.0048L19.7025 15.3413C20.4081 14.9817 20.9817 14.4081 21.3413 13.7025L20.0048 13.0215ZM16.2 1.75C17.0525 1.75 17.6467 1.75058 18.1093 1.78838C18.5632 1.82546 18.824 1.8946 19.0215 1.99524L19.7025 0.658726C19.2582 0.432385 18.7781 0.338025 18.2315 0.293363C17.6936 0.249417 17.0277 0.25 16.2 0.25V1.75ZM21.75 5.8C21.75 4.9723 21.7506 4.30641 21.7066 3.76853C21.662 3.22189 21.5676 2.74175 21.3413 2.29754L20.0048 2.97852C20.1054 3.17604 20.1745 3.4368 20.2116 3.89068C20.2494 4.35331 20.25 4.94755 20.25 5.8H21.75ZM19.0215 1.99524C19.4448 2.21095 19.789 2.55516 20.0048 2.97852L21.3413 2.29754C20.9817 1.59193 20.4081 1.01825 19.7025 0.658726L19.0215 1.99524ZM5.8 0.25C4.9723 0.25 4.30641 0.249417 3.76853 0.293363C3.22189 0.338025 2.74175 0.432385 2.29754 0.658726L2.97852 1.99524C3.17604 1.8946 3.4368 1.82546 3.89068 1.78838C4.35331 1.75058 4.94755 1.75 5.8 1.75V0.25ZM1.75 5.8C1.75 4.94755 1.75058 4.35331 1.78838 3.89068C1.82546 3.4368 1.8946 3.17604 1.99524 2.97852L0.658726 2.29754C0.432385 2.74175 0.338025 3.22189 0.293363 3.76853C0.249417 4.30641 0.25 4.9723 0.25 5.8H1.75ZM2.29754 0.658726C1.59193 1.01825 1.01825 1.59193 0.658726 2.29754L1.99524 2.97852C2.21095 2.55516 2.55516 2.21095 2.97852 1.99524L2.29754 0.658726ZM5 5.75H13V4.25H5V5.75ZM5 8.75H11V7.25H5V8.75Z" fill="#000928"/>
</svg>
