<svg xmlns="http://www.w3.org/2000/svg" viewBox="0 0 80.95 80.83"><title>Discover</title><g id="Vrstva_2" data-name="Vrstva 2"><g id="Discover"><path d="M81,40.37A40.47,40.47,0,1,1,29.54,1.47,40.06,40.06,0,0,1,40.26,0a3.11,3.11,0,1,1,0,6.22A33.82,33.82,0,0,0,8.23,29.07C3.74,42.64,6.59,54.8,16.72,64.92,24,72.14,32.93,75.15,43.15,74.44a34.16,34.16,0,0,0,9.32-66,3.1,3.1,0,0,1-2.34-2.88,3.06,3.06,0,0,1,4.2-3.08A39.61,39.61,0,0,1,70.16,13,40.25,40.25,0,0,1,80.36,34.1C80.7,36.16,80.76,38.28,81,40.37Z"/><path d="M23.05,61.14c-2.66-.16-4-2.44-3-4.62s2.17-4.55,3.25-6.83q3.9-8.17,7.79-16.36a4.46,4.46,0,0,1,2.2-2.21c7.59-3.6,15.16-7.23,22.76-10.82a4.7,4.7,0,0,1,2.2-.56,3.07,3.07,0,0,1,2.46,4.6c-1.63,3.48-3.31,6.93-5,10.4-2,4.23-4,8.46-6,12.7a4.52,4.52,0,0,1-2.26,2.28L24.73,60.54A15.06,15.06,0,0,1,23.05,61.14Zm6.58-10c.35-.12.53-.17.69-.24,4.49-2.14,9-4.27,13.46-6.44a1.93,1.93,0,0,0,.81-.88c2.12-4.38,4.21-8.79,6.31-13.19a7.84,7.84,0,0,0,.25-.77c-.26.08-.38.11-.5.16C46.11,32,41.56,34.14,37,36.34a2.08,2.08,0,0,0-.84,1q-3.09,6.41-6.14,12.85C29.92,50.44,29.82,50.73,29.63,51.18Z"/></g></g></svg>