<svg width="20" height="21" viewBox="0 0 20 21" fill="none" xmlns="http://www.w3.org/2000/svg">
<path fill-rule="evenodd" clip-rule="evenodd" d="M13.0533 1.08065C12.4572 0.274539 11.3631 0.586318 11.0328 1.32962C9.97374 3.71244 8.22634 5.72412 6.01513 7.10612L5.7849 7.25001H4.16957C3.63542 7.25 3.18957 7.24999 2.82533 7.27975C2.44545 7.31079 2.08879 7.3779 1.75153 7.54974C1.23408 7.8134 0.813385 8.23409 0.549733 8.75154C0.377889 9.0888 0.310778 9.44546 0.27974 9.82534C0.249981 10.1896 0.24999 10.6354 0.25 11.1696V16.8304C0.24999 17.3646 0.249981 17.8104 0.27974 18.1747C0.310778 18.5546 0.377889 18.9112 0.549733 19.2485C0.813385 19.7659 1.23408 20.1866 1.75153 20.4503C1.87303 20.5122 1.99791 20.561 2.12708 20.5994C3.4608 20.9966 4.86004 20.6011 5.94574 20.2943L6.07292 20.2584L12.1172 20.75H12.1477L12.2471 20.75C13.159 20.7502 13.7437 20.7503 14.2772 20.6259C15.4694 20.3478 16.5082 19.6202 17.1769 18.5948C17.4762 18.136 17.6759 17.5864 17.9874 16.7294L18.0214 16.6359L18.1903 16.1713C18.4389 15.4876 18.634 14.951 18.7709 14.5157C18.9089 14.0765 19.0025 13.6955 19.0279 13.3268C19.182 11.0923 17.7542 9.05371 15.6015 8.43489C15.2464 8.33279 14.8563 8.29059 14.3964 8.27021C14.1471 8.25917 13.8635 8.25416 13.5388 8.25189C15.1216 5.63328 14.2563 2.70766 13.0533 1.08065ZM4.2 8.75001H5.25V18.9295C4.22231 19.2096 3.35249 19.3992 2.55513 19.1618C2.50606 19.1472 2.4666 19.1311 2.43251 19.1138C2.19731 18.9939 2.00608 18.8027 1.88624 18.5675C1.8401 18.4769 1.79822 18.3397 1.77476 18.0525C1.75058 17.7567 1.75 17.3724 1.75 16.8V11.2C1.75 10.6276 1.75058 10.2434 1.77476 9.94749C1.79822 9.66037 1.8401 9.52308 1.88624 9.43252C2.00608 9.19732 2.19731 9.00609 2.43251 8.88625C2.52307 8.84011 2.66036 8.79823 2.94748 8.77477C3.24336 8.7506 3.62757 8.75001 4.2 8.75001ZM6.75 18.8085L12.1781 19.25C13.2007 19.2499 13.5959 19.2445 13.9365 19.1651C14.7522 18.9748 15.463 18.477 15.9205 17.7754C16.1134 17.4796 16.2545 17.1056 16.6117 16.1233L16.7743 15.6759C17.0306 14.9712 17.2142 14.4658 17.3399 14.066C17.4654 13.6663 17.5182 13.4171 17.5315 13.2236C17.6369 11.6947 16.66 10.2999 15.1871 9.87651C15.0007 9.82292 14.7484 9.78728 14.33 9.76874C13.9112 9.75019 13.3637 9.75001 12.6138 9.75001C12.558 9.75002 12.4971 9.75003 12.4466 9.74816L12.4424 9.74801C12.4045 9.74668 12.283 9.74242 12.156 9.69901C11.6443 9.52422 11.3839 8.97424 11.5731 8.4677C11.6207 8.34015 11.6974 8.24042 11.7198 8.21126L11.7227 8.20742C11.7543 8.16601 11.801 8.10907 11.8396 8.06202C13.3684 6.19657 13.0226 3.9441 12.1622 2.45429C10.9661 4.88519 9.11393 6.93824 6.81013 8.37812L6.75 8.4157V18.8085Z" fill="#000928"/>
</svg>
