<svg xmlns="http://www.w3.org/2000/svg" viewBox="0 0 69.1 81.62">
<title>Logout</title>
<g id="Vrstva_2" data-name="Vrstva 2">
<g id="Logout">
<path d="M21.64,81.62c-5-1.66-10-3.35-15-5C3.26,75.57,1,73.47.21,69.94A11.05,11.05,0,0,1,0,67.57q0-21,0-41.94V13.92A8.7,8.7,0,0,1,6.43,5L19.86.56c5-1.66,9.44.43,11.31,5.33.19.51.49.46.85.46,3.67,0,7.34,0,11,0a8.58,8.58,0,0,1,8.48,6.71A9.23,9.23,0,0,1,51.75,15q0,5.58,0,11.16a2.91,2.91,0,0,1-2,2.86,2.63,2.63,0,0,1-3.11-1A4.27,4.27,0,0,1,46,25.87c-.07-3.37,0-6.74,0-10.12,0-2.69-1-3.67-3.64-3.67H31.71v57.4H42.62c2.22,0,3.35-1.12,3.36-3.32,0-3.64,0-7.28,0-10.92a2.85,2.85,0,0,1,3.1-3.13,2.79,2.79,0,0,1,2.54,2.26,3.45,3.45,0,0,1,.07.55c0,4.17.08,8.35-.08,12.51a8.47,8.47,0,0,1-8.23,7.8c-3.75,0-7.5,0-11.24,0a.94.94,0,0,0-1.09.72,8.42,8.42,0,0,1-6.13,5.5,3.65,3.65,0,0,0-.41.18Zm4.22-40.84h0V33.69q0-12.39,0-24.79c0-2.34-1.76-3.68-3.92-3-4.7,1.55-9.41,3.11-14.08,4.75a3.53,3.53,0,0,0-1.67,1.46,4.21,4.21,0,0,0-.34,2q0,14.31,0,28.61,0,12.55,0,25.11A2.86,2.86,0,0,0,8.08,71c4.57,1.53,9.14,3.07,13.72,4.57a3.64,3.64,0,0,0,1.63.21c1.62-.25,2.43-1.38,2.43-3.29Z"/>
<path d="M59,37.62c-1-1-2-1.94-2.93-2.93a2.82,2.82,0,0,1-.54-3.44,2.74,2.74,0,0,1,3.08-1.43,3.55,3.55,0,0,1,1.63.9c2.6,2.55,5.16,5.13,7.73,7.71,1.54,1.56,1.53,3.18,0,4.74Q64.07,47,60.2,50.89a2.88,2.88,0,0,1-3.36.66,2.73,2.73,0,0,1-1.67-2.82,4.22,4.22,0,0,1,.93-1.94c.91-1.06,2-2,3.08-3.11-.47,0-.75,0-1,0H40.94a2.9,2.9,0,0,1-3-2.16,2.84,2.84,0,0,1,2.19-3.55,7.55,7.55,0,0,1,1.26-.09H58.92Z"/>
</g></g></svg>