<svg xmlns="http://www.w3.org/2000/svg" viewBox="0 0 80.63 75.38"><defs><style>.cls-1{fill:#010101;}</style></defs><title>Messenger</title><g id="Vrstva_2" data-name="Vrstva 2"><g id="Messenger"><path class="cls-1" d="M68.59,9.68A44.43,44.43,0,0,0,40.31,0,44.42,44.42,0,0,0,12,9.68c-7.76,6.4-12,15-12,24.1,0,9.89,5,19.09,13.86,25.5l-2.68,16.1,17.9-9.15a47.79,47.79,0,0,0,11.23,1.32,44.37,44.37,0,0,0,28.28-9.68c7.76-6.39,12-14.95,12-24.09S76.35,16.08,68.59,9.68ZM40.31,61A41.1,41.1,0,0,1,29.55,59.6l-1.22-.33-8.57,4.38L21,56.19,19.21,55c-8.06-5.22-12.67-13-12.67-21.25,0-15,15.15-27.24,33.77-27.24S74.09,18.76,74.09,33.78,58.94,61,40.31,61Z"/></g></g></svg>