<svg xmlns="http://www.w3.org/2000/svg" viewBox="0 0 80.88 76.65"><defs><style>.cls-1{stroke:#000;stroke-miterlimit:10;stroke-width:2px;}</style></defs><title>Datový zdroj 11</title><g id="Vrstva_2" data-name="Vrstva 2"><g id="NewIcons_2.0" data-name="NewIcons 2.0"><path class="cls-1" d="M79.88,10.6c-.5,2.65-2.24,4.46-4.06,6.28Q61.06,31.58,46.37,46.36A7.34,7.34,0,0,1,41.6,48.5c-1.65.17-3.3.42-5,.68a4.15,4.15,0,0,1-5-4.62c.27-2.35.6-4.68,1.05-7a4.64,4.64,0,0,1,1.17-2.26Q49.77,19.36,65.71,3.48a7.58,7.58,0,0,1,8-2.1,8.55,8.55,0,0,1,6,6.42c.05.17.12.33.17.49Zm-44,34.48c1.94-.28,3.8-.6,5.68-.79a3.12,3.12,0,0,0,2-1.07Q58.63,28.12,73.72,13c.34-.34.7-.68,1-1a3.56,3.56,0,0,0,.94-3.06,4.48,4.48,0,0,0-3.08-3.53,3.77,3.77,0,0,0-4.11,1.2L37.16,37.91a1.33,1.33,0,0,0-.4.63C36.44,40.68,36.16,42.83,35.85,45.08Z"/><path class="cls-1" d="M5.18,9.34V71.42H75.59v-1q0-16.78,0-33.58a4.52,4.52,0,0,1,.13-1.22,2,2,0,0,1,4,.37,6.44,6.44,0,0,1,0,.76q0,17.14,0,34.28a4.18,4.18,0,0,1-4.44,4.57c-5.6,0-11.2,0-16.79,0H5.47A4.1,4.1,0,0,1,1.1,72.43,5.58,5.58,0,0,1,1,71.21V9.58A4.11,4.11,0,0,1,5.42,5.16H39.77a4.47,4.47,0,0,1,1.37.15,2,2,0,0,1,1.31,2.05,2,2,0,0,1-1.4,1.83,4,4,0,0,1-1.14.14H5.18Z"/></g></g></svg>