<svg width="18" height="4" viewBox="0 0 18 4" fill="none" xmlns="http://www.w3.org/2000/svg">
<path d="M16 3.5C15.1716 3.5 14.5 2.82843 14.5 2C14.5 1.17157 15.1716 0.5 16 0.5C16.8284 0.5 17.5 1.17157 17.5 2C17.5 2.82843 16.8284 3.5 16 3.5Z" fill="#000928"/>
<path d="M9 3.5C8.17157 3.5 7.5 2.82843 7.5 2C7.5 1.17157 8.17157 0.5 9 0.5C9.82843 0.5 10.5 1.17157 10.5 2C10.5 2.82843 9.82843 3.5 9 3.5Z" fill="#000928"/>
<path d="M2 3.5C1.17157 3.5 0.5 2.82843 0.5 2C0.5 1.17157 1.17157 0.499999 2 0.499999C2.82843 0.499999 3.5 1.17157 3.5 2C3.5 2.82843 2.82843 3.5 2 3.5Z" fill="#000928"/>
</svg>
