<svg xmlns="http://www.w3.org/2000/svg" viewBox="0 0 80.9 80.54"><title>Profile</title><g id="Vrstva_2" data-name="Vrstva 2"><g id="Profile"><path d="M40.54,0A40.14,40.14,0,0,1,80.9,40.2c0,22.53-18,40.38-40.72,40.34A39.74,39.74,0,0,1,0,40.34C0,17.5,17.6,0,40.54,0ZM74.12,33.3A35,35,0,0,0,47,6.39,34.55,34.55,0,0,0,12.06,60c2,2.81,3.11,3.61,5.45.14C20.35,55.93,24.82,54,30,54c5.67,0,11.34.21,17-.07,8-.41,14.45,1.83,18.6,9.77C73.4,54.57,76.4,44.7,74.12,33.3ZM40.25,60c-3.5,0-7,0-10.49,0a9.72,9.72,0,0,0-7.7,4c-2,2.49-2.26,4.43,1.14,6.22,10.78,5.67,21.61,6,32.58.81,5.58-2.66,5.68-5.5.55-9.22A10,10,0,0,0,50.24,60h-10Z"/><path d="M40.54,14.25A17.1,17.1,0,0,1,57.9,31.68,17.45,17.45,0,0,1,40.43,49.16c-10,0-17.49-7.59-17.43-17.85C23.07,21.35,30.41,14.2,40.54,14.25ZM28.91,31.59A11.55,11.55,0,0,0,40.59,43.24,12,12,0,0,0,52,31.64,11.55,11.55,0,0,0,40.13,20.16,11.19,11.19,0,0,0,28.91,31.59Z"/></g></g></svg>