<svg xmlns="http://www.w3.org/2000/svg" viewBox="0 0 119.56 119.56"><title>search</title><g id="Vrstva_2" data-name="Vrstva 2"><g id="Capa_1" data-name="Capa 1"><path d="M14.19,82.8a48.51,48.51,0,0,1,68.6-68.61,47.57,47.57,0,0,1,7.3,58.55,2,2,0,0,0,.28,2.43l24.76,24.75c4.92,4.93,6.09,11.81,1.73,16.18l-.76.76c-4.37,4.37-11.25,3.19-16.18-1.73l-24.7-24.7a2.07,2.07,0,0,0-2.48-.34A47.58,47.58,0,0,1,14.19,82.8Zm59.65-9a35.85,35.85,0,1,0-50.7,0A35.91,35.91,0,0,0,73.84,73.84Z"/><path d="M70.74,45.61a5.18,5.18,0,0,0,2-.39,5,5,0,0,0,2.66-6.57A31.55,31.55,0,0,0,34,21.91a5,5,0,0,0,3.9,9.22A21.53,21.53,0,0,1,66.13,42.55,5,5,0,0,0,70.74,45.61Z"/></g></g></svg>