<svg xmlns="http://www.w3.org/2000/svg" viewBox="0 0 76.73 76.73"><defs><style>.cls-1{fill:#010101;stroke:#000;stroke-miterlimit:10;stroke-width:2px;}</style></defs><title>Datový zdroj 10</title><g id="Vrstva_2" data-name="Vrstva 2"><g id="NewIcons_2.0" data-name="NewIcons 2.0"><path class="cls-1" d="M1,38.37a9.06,9.06,0,0,0,9,9H29.32V66.69a9,9,0,0,0,18.09,0V47.41H66.68a9,9,0,1,0,0-18.09H47.41V10a9,9,0,0,0-18.09,0V29.32H10A9.06,9.06,0,0,0,1,38.37Zm29.83-6a1.52,1.52,0,0,0,1.51-1.51V10a6,6,0,1,1,12,0V30.83a1.52,1.52,0,0,0,1.51,1.51H66.68a6,6,0,1,1,0,12H45.9a1.52,1.52,0,0,0-1.51,1.51V66.69a6,6,0,1,1-12,0V45.9a1.52,1.52,0,0,0-1.51-1.51H10a6,6,0,1,1,0-12Z"/></g></g></svg>